# xmcd CD database file
#
# Track frame offsets:
#	150
#	17482
#	27535
#	44150
#	64175
#	86240
#	101090
#	111450
#	119120
#	131532
#	144315
#	173722
#	187220
#	205972
#	220422
#	239492
#
# Disc length: 3385 seconds
#
# Revision: 0
# Processed by: cddbd v1.5.2PL0 Copyright (c) Steve Scherf et al.
# Submitted via: CDex 1.51
#
DISCID=030d3710
DTITLE=Christain Ghasarian - Detours
DYEAR=1997
DGENRE=Jazz
TTITLE0=Partances
TTITLE1=Aurore marine
TTITLE2=Passions
TTITLE3=Instants magiques
TTITLE4=D'en haut
TTITLE5=Pourtant
TTITLE6=Detresse
TTITLE7=Introspections
TTITLE8=Attente flamenco
TTITLE9=Horizon
TTITLE10=John's Quest
TTITLE11=Berkeley Way
TTITLE12=Always
TTITLE13=So Deep
TTITLE14=Reve lointain
TTITLE15=Rivages
EXTD=YEAR: 1997
EXTT0=
EXTT1=
EXTT2=
EXTT3=
EXTT4=
EXTT5=
EXTT6=
EXTT7=
EXTT8=
EXTT9=
EXTT10=
EXTT11=
EXTT12=
EXTT13=
EXTT14=
EXTT15=
PLAYORDER=
